<?xml version="1.0" encoding="UTF-8"?>
<!DOCTYPE svg PUBLIC "-//W3C//DTD SVG 1.1//EN" "http://www.w3.org/Graphics/SVG/1.1/DTD/svg11.dtd">
<!-- Creator: CorelDRAW X7.4 EN Portable -->
<svg xmlns="http://www.w3.org/2000/svg" xml:space="preserve" width="600px" height="600px" version="1.1" style="shape-rendering:geometricPrecision; text-rendering:geometricPrecision; image-rendering:optimizeQuality; fill-rule:evenodd; clip-rule:evenodd"
viewBox="0 0 600 600"
 xmlns:xlink="http://www.w3.org/1999/xlink">
 <defs>
  <style type="text/css">
   <![CDATA[
    .str0 {stroke:black;stroke-width:0.216;stroke-linecap:round;stroke-linejoin:round}
    .fil0 {fill:none}
    .fil1 {fill:#DCC882}
    .fil2 {fill:black}
   ]]>
  </style>
 </defs>
 <g id="Layer_x0020_1">
  <metadata id="CorelCorpID_0Corel-Layer"/>
  <path class="fil0 str0" d="M445 535l-290 0c-50,0 -90,-40 -90,-90l0 -290c0,-50 40,-90 90,-90l290 0c50,0 90,40 90,90l0 290c0,50 -40,90 -90,90z"/>
  <path class="fil1 str0" d="M322 500c114,0 207,-92 207,-206 0,-114 -93,-207 -207,-207 -114,0 -206,93 -206,207 0,114 92,206 206,206z"/>
  <path class="fil2 str0" d="M453 144c-21,-21 -51,-25 -67,-9 -16,16 -12,46 9,67 21,21 51,25 67,9 16,-16 12,-46 -9,-67zm-7 7c-20,-19 -47,-24 -61,-10 -13,14 -9,41 10,61 20,19 47,23 61,10 14,-14 9,-41 -10,-61zm-129 350c114,2 209,-88 212,-202 0,0 -42,131 -179,127 -28,-1 -54,-7 -77,-19 -1,3 -3,5 -5,7 -19,19 -54,14 -79,-10 -25,-25 -29,-60 -11,-79 3,-3 7,-5 10,-7 -10,-24 -16,-50 -15,-78 1,-55 27,-103 66,-135 -71,31 -122,101 -124,184 -3,114 88,209 202,212zm-119 -106c23,23 55,28 71,11 17,-16 11,-48 -12,-71 -22,-23 -54,-28 -71,-12 -16,17 -11,49 12,72z"/>
  <path class="fil2 str0" d="M535 300l0 145c0,50 -40,90 -90,90l-290 0c-50,0 -90,-40 -90,-90l0 -290c0,-50 40,-90 90,-90l83 0 0 34c-80,32 -136,110 -136,201 0,120 97,216 217,216 119,0 216,-96 216,-216z"/>
 </g>
</svg>
