<?xml version="1.0" encoding="UTF-8"?>
<!DOCTYPE svg PUBLIC "-//W3C//DTD SVG 1.1//EN" "http://www.w3.org/Graphics/SVG/1.1/DTD/svg11.dtd">
<!-- Creator: CorelDRAW X7.4 EN Portable -->
<svg xmlns="http://www.w3.org/2000/svg" xml:space="preserve" width="211.667mm" height="211.667mm" version="1.1" style="shape-rendering:geometricPrecision; text-rendering:geometricPrecision; image-rendering:optimizeQuality; fill-rule:evenodd; clip-rule:evenodd"
viewBox="0 0 21167 21167"
 xmlns:xlink="http://www.w3.org/1999/xlink">
 <defs>
  <style type="text/css">
   <![CDATA[
    .str0 {stroke:black;stroke-width:7.62;stroke-linecap:round;stroke-linejoin:round}
    .fil0 {fill:none}
    .fil1 {fill:#DCC882}
    .fil2 {fill:black}
   ]]>
  </style>
 </defs>
 <g id="Layer_x0020_1">
  <metadata id="CorelCorpID_0Corel-Layer"/>
  <path class="fil0 str0" d="M15699 18874l-10231 0c-1746,0 -3175,-1429 -3175,-3175l0 -10231c0,-1746 1429,-3175 3175,-3175l10231 0c1746,0 3175,1429 3175,3175l0 10231c0,1746 -1429,3175 -3175,3175z"/>
  <path class="fil1 str0" d="M11473 17275c3892,0 7048,-3156 7048,-7048 0,-3893 -3156,-7048 -7048,-7048 -3893,0 -7048,3155 -7048,7048 0,3892 3155,7048 7048,7048z"/>
  <path class="fil2 str0" d="M15929 5122c-714,-713 -1733,-851 -2276,-308 -544,543 -406,1561 308,2274 714,714 1733,852 2277,309 543,-543 405,-1562 -309,-2275zm-274 273c-635,-635 -1520,-781 -1975,-326 -455,454 -309,1338 327,1973 636,636 1520,782 1975,327 455,-455 309,-1338 -327,-1974zm-4369 11885c3896,99 7135,-2976 7234,-6869 0,-5 -1420,4452 -6100,4333 -943,-24 -1831,-258 -2621,-654 -54,89 -118,173 -194,249 -640,639 -1840,476 -2680,-364 -841,-840 -1004,-2039 -364,-2678 102,-102 218,-183 344,-245 -360,-812 -550,-1714 -525,-2661 47,-1864 914,-3514 2247,-4617 -2423,1066 -4143,3457 -4215,6277 -100,3893 2978,7129 6874,7229zm-4009 -3657c748,747 1789,919 2324,384 536,-535 364,-1575 -384,-2322 -748,-748 -1789,-920 -2324,-384 -536,535 -364,1574 384,2322z"/>
  <path class="fil2 str0" d="M18874 10584l0 5120c0,1743 -1427,3170 -3170,3170l-10242 0c-1743,0 -3169,-1426 -3169,-3170l0 -10242c0,-1743 1426,-3169 3169,-3169l2932 0 0 1202c-2809,1128 -4792,3877 -4792,7088 0,4217 3419,7636 7636,7636 4217,0 7635,-3418 7636,-7635z"/>
 </g>
</svg>
